<svg width="97" height="97" viewBox="0 0 97 97" fill="none" xmlns="http://www.w3.org/2000/svg">
<circle cx="48.5" cy="48.5" r="48.5" fill="url(#paint0_linear_143_15)"/>
<path d="M42.6302 63.1844C42.6302 63.4632 42.8889 63.6875 43.2067 63.6875H51.2927C51.6105 63.6875 51.8692 63.4632 51.8692 63.1844V59.8781C51.8692 59.5993 51.6105 59.375 51.2927 59.375H43.2067C42.8889 59.375 42.6302 59.5993 42.6302 59.8781V63.1844Z" fill="white"/>
<path d="M62.956 55.0309L64.3271 54.269L64.3326 54.2647C66.9838 52.7961 69.0517 50.7779 70.301 48.4399C71.1856 46.8236 71.6533 45.0877 71.6776 43.3311L71.77 39.3636V39.3363C71.7706 37.6157 71.0391 35.9435 69.6897 34.5803C68.3403 33.2172 66.4488 32.2399 64.3104 31.8009C63.4102 29.0015 61.3332 26.5165 58.4094 24.7407C55.4857 22.9649 51.8829 22.0003 48.1736 22H42.6302C38.2196 22 33.9896 23.3631 30.8709 25.7893C27.7521 28.2156 26 31.5063 26 34.9375V45C25.9978 46.8205 26.4906 48.6208 27.446 50.2826C28.4014 51.9445 29.7977 53.4304 31.5434 54.6428V63.7579C31.5434 65.8567 33.6092 68 36.83 68H57.6713C60.9604 68 62.956 65.7949 62.956 63.7579V55.0309ZM35.239 53.2584C33.5268 52.3322 32.1284 51.0972 31.163 49.6591C30.1977 48.2209 29.6942 46.6224 29.6956 45V34.9375C29.6956 32.2688 31.0584 29.7093 33.4841 27.8222C35.9098 25.9352 39.1997 24.875 42.6302 24.875H48.1736C51.4945 24.8756 54.688 25.8695 57.093 27.6511C59.498 29.4327 60.9303 31.8655 61.0934 34.4459H61.1082V41.4062C61.1082 41.5969 61.2055 41.7797 61.3788 41.9145C61.5521 42.0493 61.7871 42.125 62.0321 42.125C62.2771 42.125 62.5121 42.0493 62.6854 41.9145C62.8587 41.7797 62.956 41.5969 62.956 41.4062V34.5091C64.397 34.7261 65.6959 35.3266 66.6299 36.2074C67.5638 37.0882 68.0746 38.1944 68.0744 39.3363L67.982 43.2894C67.9645 44.6786 67.594 46.0514 66.8918 47.3288C65.9075 49.1759 64.2746 50.77 62.1799 51.9287L59.2604 53.5517V55.0625H35.239V53.2584ZM35.239 57.9375H59.2604V63.7579C59.2604 64.5054 58.5582 65.125 57.6694 65.125H36.8281C35.9596 65.125 35.2372 64.5212 35.2372 63.7579L35.239 57.9375Z" fill="white"/>
<defs>
<linearGradient id="paint0_linear_143_15" x1="97" y1="48.5" x2="-7.45761e-07" y2="48.5" gradientUnits="userSpaceOnUse">
<stop stop-color="#F54586"/>
<stop offset="1" stop-color="#5353A7"/>
</linearGradient>
</defs>
</svg>
