<svg width="59" height="59" viewBox="0 0 59 59" fill="none" xmlns="http://www.w3.org/2000/svg">
<path d="M54.0833 49.1666H4.91667C2.20512 49.1666 0 46.9615 0 44.25V14.75C0 12.0384 2.20512 9.83331 4.91667 9.83331H54.0833C56.7949 9.83331 59 12.0384 59 14.75V44.25C59 46.9615 56.7949 49.1666 54.0833 49.1666ZM4.91667 12.2916C3.5609 12.2916 2.45833 13.3942 2.45833 14.75V44.25C2.45833 45.6057 3.5609 46.7083 4.91667 46.7083H54.0833C55.4391 46.7083 56.5417 45.6057 56.5417 44.25V14.75C56.5417 13.3942 55.4391 12.2916 54.0833 12.2916H4.91667Z" fill="white"/>
<path d="M29.5 35.8806L7.93673 21.9283C7.66289 21.7513 7.47059 21.4728 7.40213 21.154C7.33366 20.8352 7.39465 20.5022 7.57166 20.2284C7.74868 19.9546 8.02723 19.7623 8.34603 19.6938C8.66483 19.6253 8.99777 19.6863 9.2716 19.8633L29.5 32.9527L49.7284 19.8633C50.0022 19.6863 50.3352 19.6253 50.654 19.6938C50.9728 19.7623 51.2513 19.9546 51.4283 20.2284C51.6054 20.5022 51.6663 20.8352 51.5979 21.154C51.5294 21.4728 51.3371 21.7513 51.0633 21.9283L29.5 35.8806ZM7.37623 41.7917C7.1123 41.792 6.85527 41.7073 6.64318 41.5503C6.43108 41.3932 6.27518 41.172 6.19853 40.9195C6.12188 40.6669 6.12856 40.3964 6.21758 40.1479C6.30659 39.8995 6.47322 39.6862 6.69281 39.5398L17.7553 32.1648C17.8896 32.0752 18.0402 32.013 18.1986 31.9816C18.357 31.9502 18.5199 31.9504 18.6783 31.982C18.8366 32.0136 18.9871 32.0761 19.1213 32.1659C19.2554 32.2557 19.3706 32.371 19.4602 32.5053C19.5498 32.6396 19.612 32.7902 19.6434 32.9486C19.6748 33.107 19.6746 33.2699 19.643 33.4283C19.6114 33.5866 19.5489 33.7371 19.4591 33.8713C19.3693 34.0054 19.254 34.1206 19.1197 34.2102L8.05718 41.5852C7.8554 41.7194 7.61856 41.7912 7.37623 41.7917ZM51.6238 41.7917C51.3902 41.7917 51.153 41.7241 50.9428 41.5852L39.8803 34.2102C39.746 34.1206 39.6307 34.0054 39.5409 33.8713C39.4511 33.7371 39.3886 33.5866 39.357 33.4283C39.3254 33.2699 39.3252 33.107 39.3566 32.9486C39.388 32.7902 39.4502 32.6396 39.5398 32.5053C39.6294 32.371 39.7446 32.2557 39.8787 32.1659C40.0129 32.0761 40.1634 32.0136 40.3217 31.982C40.4801 31.9504 40.643 31.9502 40.8014 31.9816C40.9598 32.013 41.1104 32.0752 41.2447 32.1648L52.3072 39.5398C52.5268 39.6862 52.6934 39.8995 52.7824 40.1479C52.8714 40.3964 52.8781 40.6669 52.8015 40.9195C52.7248 41.172 52.5689 41.3932 52.3568 41.5503C52.1447 41.7073 51.8877 41.792 51.6238 41.7917Z" fill="white"/>
</svg>
