<svg width="75" height="59" viewBox="0 0 75 59" fill="none" xmlns="http://www.w3.org/2000/svg">
<path d="M68.75 49.1666H6.25C2.80312 49.1666 0 46.9615 0 44.25V14.75C0 12.0384 2.80312 9.83331 6.25 9.83331H68.75C72.1969 9.83331 75 12.0384 75 14.75V44.25C75 46.9615 72.1969 49.1666 68.75 49.1666ZM6.25 12.2916C4.52656 12.2916 3.125 13.3942 3.125 14.75V44.25C3.125 45.6058 4.52656 46.7083 6.25 46.7083H68.75C70.4734 46.7083 71.875 45.6058 71.875 44.25V14.75C71.875 13.3942 70.4734 12.2916 68.75 12.2916H6.25Z" fill="white"/>
<path d="M37.5 35.8806L10.0891 21.9283C9.74097 21.7513 9.49652 21.4728 9.40949 21.154C9.32246 20.8352 9.39998 20.5022 9.625 20.2284C9.85002 19.9546 10.2041 19.7623 10.6094 19.6938C11.0146 19.6253 11.4378 19.6863 11.7859 19.8633L37.5 32.9527L63.2141 19.8633C63.5622 19.6863 63.9854 19.6253 64.3906 19.6938C64.7959 19.7623 65.15 19.9546 65.375 20.2284C65.6 20.5022 65.6775 20.8352 65.5905 21.154C65.5035 21.4728 65.259 21.7513 64.9109 21.9283L37.5 35.8806ZM9.37656 41.7917C9.04106 41.792 8.71434 41.7073 8.44472 41.5503C8.17511 41.3932 7.97693 41.172 7.87949 40.9195C7.78206 40.6669 7.79055 40.3964 7.9037 40.1479C8.01686 39.8995 8.22868 39.6862 8.50781 39.5398L22.5703 32.1648C22.741 32.0752 22.9325 32.013 23.1338 31.9816C23.3351 31.9502 23.5423 31.9504 23.7435 31.982C23.9448 32.0136 24.1361 32.0761 24.3067 32.1659C24.4772 32.2557 24.6236 32.371 24.7375 32.5053C24.8514 32.6396 24.9305 32.7902 24.9704 32.9486C25.0103 33.107 25.0101 33.2699 24.9699 33.4283C24.9297 33.5866 24.8503 33.7371 24.7362 33.8713C24.622 34.0054 24.4754 34.1206 24.3047 34.2102L10.2422 41.5852C9.98568 41.7194 9.68462 41.7912 9.37656 41.7917ZM65.6234 41.7917C65.3266 41.7917 65.025 41.7241 64.7578 41.5852L50.6953 34.2102C50.5246 34.1206 50.378 34.0054 50.2638 33.8713C50.1497 33.7371 50.0703 33.5866 50.0301 33.4283C49.9899 33.2699 49.9897 33.107 50.0296 32.9486C50.0695 32.7902 50.1486 32.6396 50.2625 32.5053C50.3764 32.371 50.5228 32.2557 50.6933 32.1659C50.8639 32.0761 51.0552 32.0136 51.2565 31.982C51.4577 31.9504 51.6649 31.9502 51.8662 31.9816C52.0675 32.013 52.259 32.0752 52.4297 32.1648L66.4922 39.5398C66.7713 39.6862 66.9831 39.8995 67.0963 40.1479C67.2095 40.3964 67.2179 40.6669 67.1205 40.9195C67.0231 41.172 66.8249 41.3932 66.5553 41.5503C66.2857 41.7073 65.9589 41.792 65.6234 41.7917Z" fill="white"/>
</svg>
