<svg width="97" height="97" viewBox="0 0 97 97" fill="none" xmlns="http://www.w3.org/2000/svg">
<circle cx="48.5" cy="48.5" r="48.5" fill="url(#paint0_linear_143_12)"/>
<path d="M74.7188 30.1492C76.4271 31.8148 77.7292 33.7039 78.625 35.8164C79.5208 37.9289 79.9792 40.1734 80 42.55C80 43.2609 79.9792 44.1141 79.9375 45.1094C79.8958 46.1047 79.8125 47.1813 79.6875 48.3391C79.5625 49.4969 79.3646 50.6852 79.0938 51.9039C78.8229 53.1227 78.4792 54.3313 78.0625 55.5297C77.4375 57.2766 76.7083 58.6984 75.875 59.7953C75.0417 60.8922 74.1771 61.7555 73.2812 62.3852C72.3854 63.0148 71.4792 63.4414 70.5625 63.6648C69.6458 63.8883 68.7917 64 68 64C67.3125 64 66.6875 63.8883 66.125 63.6648C65.5625 63.4414 65.0208 63.1367 64.5 62.7508C63.9792 62.3648 63.5 61.9484 63.0625 61.5016C62.625 61.0547 62.1771 60.5672 61.7188 60.0391C61.2812 59.5516 60.8542 59.0844 60.4375 58.6375C60.0208 58.1906 59.5729 57.7945 59.0938 57.4492C58.6146 57.1039 58.1354 56.8094 57.6562 56.5656C57.1771 56.3219 56.6146 56.2 55.9688 56.2H40.0312C39.4271 56.2203 38.875 56.3422 38.375 56.5656C37.875 56.7891 37.3854 57.0734 36.9062 57.4188C36.4271 57.7641 35.9896 58.1703 35.5938 58.6375C35.1979 59.1047 34.7604 59.5719 34.2812 60.0391C33.8438 60.5266 33.4062 61.0039 32.9688 61.4711C32.5312 61.9383 32.0521 62.3648 31.5312 62.7508C31.0104 63.1367 30.4688 63.4313 29.9062 63.6344C29.3438 63.8375 28.7083 63.9594 28 64C27.2083 64 26.3542 63.8883 25.4375 63.6648C24.5208 63.4414 23.6146 63.025 22.7188 62.4156C21.8229 61.8063 20.9583 60.943 20.125 59.8258C19.2917 58.7086 18.5625 57.2766 17.9375 55.5297C17.5208 54.3516 17.1875 53.1531 16.9375 51.9344C16.6875 50.7156 16.4896 49.5172 16.3438 48.3391C16.1979 47.1609 16.1042 46.0844 16.0625 45.1094C16.0208 44.1344 16 43.2813 16 42.55C16 40.1938 16.4479 37.9594 17.3438 35.8469C18.2396 33.7344 19.5521 31.8352 21.2812 30.1492C22.9688 28.4836 24.9062 27.2141 27.0938 26.3406C29.2812 25.4672 31.5833 25.0203 34 25H62C64.4167 25 66.7083 25.4367 68.875 26.3102C71.0417 27.1836 72.9896 28.4633 74.7188 30.1492ZM74.2812 54.25C74.6771 53.1734 74.9896 52.0563 75.2188 50.8984C75.4479 49.7406 75.6146 48.6336 75.7188 47.5773C75.8229 46.5211 75.8958 45.5461 75.9375 44.6523C75.9792 43.7586 76 43.0578 76 42.55C76 40.6609 75.6354 38.8938 74.9062 37.2484C74.1771 35.6031 73.1771 34.1609 71.9062 32.9219C70.6354 31.6828 69.1562 30.7078 67.4688 29.9969C65.7812 29.2859 63.9583 28.9203 62 28.9H34C32.0625 28.9 30.25 29.2555 28.5625 29.9664C26.875 30.6773 25.3958 31.6523 24.125 32.8914C22.8542 34.1305 21.8542 35.5727 21.125 37.218C20.3958 38.8633 20.0208 40.6406 20 42.55C20 43.0781 20.0104 43.7789 20.0312 44.6523C20.0521 45.5258 20.125 46.4906 20.25 47.5469C20.375 48.6031 20.5521 49.7203 20.7812 50.8984C21.0104 52.0766 21.3229 53.1938 21.7188 54.25C22.2396 55.7125 22.8125 56.8398 23.4375 57.632C24.0625 58.4242 24.6667 59.0031 25.25 59.3688C25.8333 59.7344 26.375 59.9477 26.875 60.0086C27.375 60.0695 27.75 60.1 28 60.1C28.4583 60.1 28.9583 59.8359 29.5 59.3078C30.0417 58.7797 30.625 58.1703 31.25 57.4797C31.75 56.9109 32.2812 56.332 32.8438 55.743C33.4062 55.1539 34.0417 54.6055 34.75 54.0977C35.4583 53.5898 36.2396 53.1734 37.0938 52.8484C37.9479 52.5234 38.8958 52.3406 39.9375 52.3H56.0625C57.1042 52.3406 58.0521 52.5234 58.9062 52.8484C59.7604 53.1734 60.5312 53.5797 61.2188 54.0672C61.9062 54.5547 62.5417 55.1031 63.125 55.7125C63.7083 56.3219 64.25 56.9109 64.75 57.4797C65.3542 58.15 65.9271 58.7492 66.4688 59.2773C67.0104 59.8055 67.5208 60.0797 68 60.1C68.25 60.1 68.6146 60.0695 69.0938 60.0086C69.5729 59.9477 70.1146 59.7344 70.7188 59.3688C71.3229 59.0031 71.9375 58.4242 72.5625 57.632C73.1875 56.8398 73.7604 55.7125 74.2812 54.25ZM32 40.6H36V44.5H32V48.4H28V44.5H24V40.6H28V36.7H32V40.6ZM68 44.5C68.5625 44.5 69.0833 44.6016 69.5625 44.8047C70.0417 45.0078 70.4583 45.282 70.8125 45.6273C71.1667 45.9727 71.4583 46.3891 71.6875 46.8766C71.9167 47.3641 72.0208 47.8719 72 48.4C72 48.9484 71.8958 49.4563 71.6875 49.9234C71.4792 50.3906 71.1979 50.7969 70.8438 51.1422C70.4896 51.4875 70.0625 51.7719 69.5625 51.9953C69.0625 52.2188 68.5417 52.3203 68 52.3C67.4375 52.3 66.9167 52.1984 66.4375 51.9953C65.9583 51.7922 65.5417 51.518 65.1875 51.1727C64.8333 50.8273 64.5417 50.4109 64.3125 49.9234C64.0833 49.4359 63.9792 48.9281 64 48.4C64 47.8516 64.1042 47.3438 64.3125 46.8766C64.5208 46.4094 64.8021 46.0031 65.1562 45.6578C65.5104 45.3125 65.9375 45.0281 66.4375 44.8047C66.9375 44.5813 67.4583 44.4797 68 44.5ZM60 36.7C60.5625 36.7 61.0833 36.8016 61.5625 37.0047C62.0417 37.2078 62.4583 37.482 62.8125 37.8273C63.1667 38.1727 63.4583 38.5891 63.6875 39.0766C63.9167 39.5641 64.0208 40.0719 64 40.6C64 41.1484 63.8958 41.6563 63.6875 42.1234C63.4792 42.5906 63.1979 42.9969 62.8438 43.3422C62.4896 43.6875 62.0625 43.9719 61.5625 44.1953C61.0625 44.4188 60.5417 44.5203 60 44.5C59.4375 44.5 58.9167 44.3984 58.4375 44.1953C57.9583 43.9922 57.5417 43.718 57.1875 43.3727C56.8333 43.0273 56.5417 42.6109 56.3125 42.1234C56.0833 41.6359 55.9792 41.1281 56 40.6C56 40.0516 56.1042 39.5438 56.3125 39.0766C56.5208 38.6094 56.8021 38.2031 57.1562 37.8578C57.5104 37.5125 57.9375 37.2281 58.4375 37.0047C58.9375 36.7813 59.4583 36.6797 60 36.7Z" fill="white"/>
<defs>
<linearGradient id="paint0_linear_143_12" x1="97" y1="48.5" x2="-7.45761e-07" y2="48.5" gradientUnits="userSpaceOnUse">
<stop stop-color="#F54586"/>
<stop offset="1" stop-color="#5353A7"/>
</linearGradient>
</defs>
</svg>
