<svg width="66" height="49" viewBox="0 0 66 49" fill="none" xmlns="http://www.w3.org/2000/svg">
<mask id="path-1-inside-1_95_170" fill="white">
<path fill-rule="evenodd" clip-rule="evenodd" d="M8.85366 0C6.50552 0 4.25356 0.692529 2.59318 1.92524C0.932794 3.15795 0 4.82986 0 6.57317C0 8.31648 0.932794 9.9884 2.59318 11.2211C4.25356 12.4538 6.50552 13.1463 8.85366 13.1463C11.2018 13.1463 13.4538 12.4538 15.1141 11.2211C16.7745 9.9884 17.7073 8.31648 17.7073 6.57317C17.7073 4.82986 16.7745 3.15795 15.1141 1.92524C13.4538 0.692529 11.2018 0 8.85366 0ZM4.82927 6.57317C4.82927 5.78076 5.25327 5.0208 6.00798 4.46047C6.7627 3.90015 7.78632 3.58537 8.85366 3.58537C9.92099 3.58537 10.9446 3.90015 11.6993 4.46047C12.4541 5.0208 12.878 5.78076 12.878 6.57317C12.878 7.36559 12.4541 8.12555 11.6993 8.68587C10.9446 9.24619 9.92099 9.56098 8.85366 9.56098C7.78632 9.56098 6.7627 9.24619 6.00798 8.68587C5.25327 8.12555 4.82927 7.36559 4.82927 6.57317ZM0 16.1341C0 15.6587 0.254398 15.2027 0.70723 14.8665C1.16006 14.5303 1.77423 14.3415 2.41463 14.3415H15.2927C15.9331 14.3415 16.5473 14.5303 17.0001 14.8665C17.4529 15.2027 17.7073 15.6587 17.7073 16.1341V47.2073C17.7073 47.6828 17.4529 48.1387 17.0001 48.4749C16.5473 48.8111 15.9331 49 15.2927 49H2.41463C1.77423 49 1.16006 48.8111 0.70723 48.4749C0.254398 48.1387 0 47.6828 0 47.2073V16.1341ZM4.82927 17.9268V45.4146H12.878V17.9268H4.82927ZM22.5366 16.1341C22.5366 15.6587 22.791 15.2027 23.2438 14.8665C23.6966 14.5303 24.3108 14.3415 24.9512 14.3415H37.8293C38.4697 14.3415 39.0838 14.5303 39.5367 14.8665C39.9895 15.2027 40.2439 15.6587 40.2439 16.1341V17.1715L41.6444 16.7245C44.0591 15.9584 46.6208 15.4785 49.236 15.3023C58.1701 14.7 66 19.9107 66 26.6034V47.2073C66 47.6828 65.7456 48.1387 65.2928 48.4749C64.8399 48.8111 64.2258 49 63.5854 49H50.7073C50.0669 49 49.4527 48.8111 48.9999 48.4749C48.5471 48.1387 48.2927 47.6828 48.2927 47.2073V30.4756C48.2927 29.6832 47.8687 28.9232 47.114 28.3629C46.3593 27.8026 45.3356 27.4878 44.2683 27.4878C43.201 27.4878 42.1773 27.8026 41.4226 28.3629C40.6679 28.9232 40.2439 29.6832 40.2439 30.4756V47.2073C40.2439 47.6828 39.9895 48.1387 39.5367 48.4749C39.0838 48.8111 38.4697 49 37.8293 49H24.9512C24.3108 49 23.6966 48.8111 23.2438 48.4749C22.791 48.1387 22.5366 47.6828 22.5366 47.2073V16.1341ZM27.3659 17.9268V45.4146H35.4146V30.4756C35.4146 28.7323 36.3474 27.0604 38.0078 25.8277C39.6682 24.595 41.9202 23.9024 44.2683 23.9024C46.6164 23.9024 48.8684 24.595 50.5288 25.8277C52.1892 27.0604 53.122 28.7323 53.122 30.4756V45.4146H61.1707V26.6034C61.1707 22.0524 55.8231 18.4575 49.6771 18.8734C47.5656 19.016 45.4973 19.4031 43.5471 20.0207L38.7822 21.5385C38.4147 21.6557 38.0138 21.7033 37.6153 21.677C37.2169 21.6507 36.8336 21.5513 36.4997 21.3878C36.1658 21.2242 35.8918 21.0017 35.7025 20.7401C35.5131 20.4786 35.4142 20.1862 35.4146 19.8892V17.9268H27.3659Z"/>
</mask>
<path fill-rule="evenodd" clip-rule="evenodd" d="M8.85366 0C6.50552 0 4.25356 0.692529 2.59318 1.92524C0.932794 3.15795 0 4.82986 0 6.57317C0 8.31648 0.932794 9.9884 2.59318 11.2211C4.25356 12.4538 6.50552 13.1463 8.85366 13.1463C11.2018 13.1463 13.4538 12.4538 15.1141 11.2211C16.7745 9.9884 17.7073 8.31648 17.7073 6.57317C17.7073 4.82986 16.7745 3.15795 15.1141 1.92524C13.4538 0.692529 11.2018 0 8.85366 0ZM4.82927 6.57317C4.82927 5.78076 5.25327 5.0208 6.00798 4.46047C6.7627 3.90015 7.78632 3.58537 8.85366 3.58537C9.92099 3.58537 10.9446 3.90015 11.6993 4.46047C12.4541 5.0208 12.878 5.78076 12.878 6.57317C12.878 7.36559 12.4541 8.12555 11.6993 8.68587C10.9446 9.24619 9.92099 9.56098 8.85366 9.56098C7.78632 9.56098 6.7627 9.24619 6.00798 8.68587C5.25327 8.12555 4.82927 7.36559 4.82927 6.57317ZM0 16.1341C0 15.6587 0.254398 15.2027 0.70723 14.8665C1.16006 14.5303 1.77423 14.3415 2.41463 14.3415H15.2927C15.9331 14.3415 16.5473 14.5303 17.0001 14.8665C17.4529 15.2027 17.7073 15.6587 17.7073 16.1341V47.2073C17.7073 47.6828 17.4529 48.1387 17.0001 48.4749C16.5473 48.8111 15.9331 49 15.2927 49H2.41463C1.77423 49 1.16006 48.8111 0.70723 48.4749C0.254398 48.1387 0 47.6828 0 47.2073V16.1341ZM4.82927 17.9268V45.4146H12.878V17.9268H4.82927ZM22.5366 16.1341C22.5366 15.6587 22.791 15.2027 23.2438 14.8665C23.6966 14.5303 24.3108 14.3415 24.9512 14.3415H37.8293C38.4697 14.3415 39.0838 14.5303 39.5367 14.8665C39.9895 15.2027 40.2439 15.6587 40.2439 16.1341V17.1715L41.6444 16.7245C44.0591 15.9584 46.6208 15.4785 49.236 15.3023C58.1701 14.7 66 19.9107 66 26.6034V47.2073C66 47.6828 65.7456 48.1387 65.2928 48.4749C64.8399 48.8111 64.2258 49 63.5854 49H50.7073C50.0669 49 49.4527 48.8111 48.9999 48.4749C48.5471 48.1387 48.2927 47.6828 48.2927 47.2073V30.4756C48.2927 29.6832 47.8687 28.9232 47.114 28.3629C46.3593 27.8026 45.3356 27.4878 44.2683 27.4878C43.201 27.4878 42.1773 27.8026 41.4226 28.3629C40.6679 28.9232 40.2439 29.6832 40.2439 30.4756V47.2073C40.2439 47.6828 39.9895 48.1387 39.5367 48.4749C39.0838 48.8111 38.4697 49 37.8293 49H24.9512C24.3108 49 23.6966 48.8111 23.2438 48.4749C22.791 48.1387 22.5366 47.6828 22.5366 47.2073V16.1341ZM27.3659 17.9268V45.4146H35.4146V30.4756C35.4146 28.7323 36.3474 27.0604 38.0078 25.8277C39.6682 24.595 41.9202 23.9024 44.2683 23.9024C46.6164 23.9024 48.8684 24.595 50.5288 25.8277C52.1892 27.0604 53.122 28.7323 53.122 30.4756V45.4146H61.1707V26.6034C61.1707 22.0524 55.8231 18.4575 49.6771 18.8734C47.5656 19.016 45.4973 19.4031 43.5471 20.0207L38.7822 21.5385C38.4147 21.6557 38.0138 21.7033 37.6153 21.677C37.2169 21.6507 36.8336 21.5513 36.4997 21.3878C36.1658 21.2242 35.8918 21.0017 35.7025 20.7401C35.5131 20.4786 35.4142 20.1862 35.4146 19.8892V17.9268H27.3659Z" fill="white"/>
<path d="M8.85366 0L8.85366 -88L8.85366 0ZM0 6.57317L-88 6.57317L0 6.57317ZM4.82927 6.57317L-83.1707 6.57317L4.82927 6.57317ZM2.41463 14.3415L2.41463 -73.6585L2.41463 14.3415ZM15.2927 14.3415V-73.6585V14.3415ZM17.7073 47.2073H105.707H17.7073ZM4.82927 17.9268V-70.0732H-83.1707V17.9268H4.82927ZM4.82927 45.4146H-83.1707V133.415H4.82927V45.4146ZM12.878 45.4146V133.415H100.878V45.4146H12.878ZM12.878 17.9268H100.878V-70.0732H12.878V17.9268ZM24.9512 14.3415L24.9512 -73.6585L24.9512 14.3415ZM37.8293 14.3415V-73.6585V14.3415ZM40.2439 17.1715H-47.7561V137.631L67.0001 101.005L40.2439 17.1715ZM41.6444 16.7245L15.0312 -67.1548L14.9597 -67.1321L14.8882 -67.1093L41.6444 16.7245ZM49.236 15.3023L55.1502 103.103L55.1555 103.103L49.236 15.3023ZM40.2439 47.2073H128.244H40.2439ZM27.3659 17.9268V-70.0732H-60.6341V17.9268H27.3659ZM27.3659 45.4146H-60.6341V133.415H27.3659V45.4146ZM35.4146 45.4146V133.415H123.415V45.4146H35.4146ZM53.122 45.4146H-34.878V133.415H53.122V45.4146ZM61.1707 45.4146V133.415H149.171V45.4146H61.1707ZM49.6771 18.8734L55.6075 106.673L55.6184 106.673L49.6771 18.8734ZM43.5471 20.0207L16.9796 -63.8731L16.9088 -63.8507L16.838 -63.8281L43.5471 20.0207ZM38.7822 21.5385L12.0731 -62.3103L12.0595 -62.306L12.0458 -62.3016L38.7822 21.5385ZM35.4146 19.8892L123.415 20.0286L123.415 19.9589V19.8892H35.4146ZM35.4146 17.9268H123.415V-70.0732H35.4146V17.9268ZM8.85366 -88C-9.7146 -88 -31.018 -82.7223 -49.8636 -68.7309L55.05 72.5813C39.5251 84.1074 22.7256 88 8.85366 88L8.85366 -88ZM-49.8636 -68.7309C-69.1778 -54.3916 -88 -28.4029 -88 6.57317L88 6.57317C88 38.0627 71.0434 60.7075 55.05 72.5813L-49.8636 -68.7309ZM-88 6.57317C-88 41.5493 -69.1778 67.5379 -49.8636 81.8772L55.05 -59.435C71.0434 -47.5611 88 -24.9163 88 6.57317L-88 6.57317ZM-49.8636 81.8772C-31.018 95.8687 -9.71459 101.146 8.85366 101.146V-74.8537C22.7256 -74.8537 39.5251 -70.961 55.05 -59.435L-49.8636 81.8772ZM8.85366 101.146C27.4219 101.146 48.7253 95.8687 67.5709 81.8772L-37.3427 -59.435C-21.8178 -70.961 -5.01831 -74.8537 8.85366 -74.8537V101.146ZM67.5709 81.8772C86.8851 67.5379 105.707 41.5493 105.707 6.57317H-70.2927C-70.2927 -24.9163 -53.3361 -47.5611 -37.3427 -59.435L67.5709 81.8772ZM105.707 6.57317C105.707 -28.4029 86.8851 -54.3915 67.5709 -68.7309L-37.3427 72.5813C-53.3361 60.7074 -70.2927 38.0626 -70.2927 6.57317H105.707ZM67.5709 -68.7309C48.7253 -82.7223 27.4219 -88 8.85366 -88L8.85366 88C-5.01832 88 -21.8178 84.1074 -37.3427 72.5813L67.5709 -68.7309ZM92.8293 6.57317C92.8293 39.0136 75.3638 62.5703 58.4648 75.1166L-46.4488 -66.1956C-64.8573 -52.5287 -83.1707 -27.452 -83.1707 6.57317L92.8293 6.57317ZM58.4648 75.1166C42.0343 87.315 24.0064 91.5854 8.85366 91.5854V-84.4146C-8.4338 -84.4146 -28.5089 -79.5147 -46.4488 -66.1956L58.4648 75.1166ZM8.85366 91.5854C-6.29913 91.5854 -24.327 87.315 -40.7575 75.1166L64.1561 -66.1956C46.2162 -79.5147 26.1411 -84.4146 8.85366 -84.4146V91.5854ZM-40.7575 75.1166C-57.6565 62.5703 -75.122 39.0136 -75.122 6.57317H100.878C100.878 -27.452 82.5646 -52.5287 64.1561 -66.1956L-40.7575 75.1166ZM-75.122 6.57317C-75.122 -25.8672 -57.6565 -49.424 -40.7575 -61.9702L64.1561 79.342C82.5646 65.6751 100.878 40.5984 100.878 6.57317H-75.122ZM-40.7575 -61.9702C-24.327 -74.1686 -6.29913 -78.439 8.85366 -78.439V97.561C26.1411 97.561 46.2162 92.661 64.1561 79.342L-40.7575 -61.9702ZM8.85366 -78.439C24.0064 -78.439 42.0343 -74.1686 58.4648 -61.9702L-46.4488 79.342C-28.5089 92.661 -8.4338 97.561 8.85366 97.561V-78.439ZM58.4648 -61.9702C75.3638 -49.424 92.8293 -25.8672 92.8293 6.57317L-83.1707 6.57317C-83.1707 40.5984 -64.8573 65.6751 -46.4488 79.342L58.4648 -61.9702ZM88 16.1341C88 48.8914 70.365 72.7522 53.164 85.5226L-51.7496 -55.7896C-69.8562 -42.3467 -88 -17.5741 -88 16.1341H88ZM53.164 85.5226C36.4316 97.9452 17.9943 102.341 2.41463 102.341L2.41463 -73.6585C-14.4459 -73.6585 -34.1115 -68.8845 -51.7496 -55.7896L53.164 85.5226ZM2.41463 102.341H15.2927V-73.6585H2.41463V102.341ZM15.2927 102.341C-0.287004 102.341 -18.7243 97.9452 -35.4567 85.5226L69.4569 -55.7896C51.8188 -68.8845 32.1532 -73.6585 15.2927 -73.6585L15.2927 102.341ZM-35.4567 85.5226C-52.6577 72.7522 -70.2927 48.8914 -70.2927 16.1341H105.707C105.707 -17.5741 87.5635 -42.3467 69.4569 -55.7896L-35.4567 85.5226ZM-70.2927 16.1341V47.2073H105.707V16.1341H-70.2927ZM-70.2927 47.2073C-70.2927 14.4501 -52.6578 -9.41068 -35.4567 -22.1812L69.4569 119.131C87.5636 105.688 105.707 80.9155 105.707 47.2073L-70.2927 47.2073ZM-35.4567 -22.1812C-18.7242 -34.6038 -0.286886 -39 15.2927 -39V137C32.1531 137 51.8187 132.226 69.4569 119.131L-35.4567 -22.1812ZM15.2927 -39H2.41463V137H15.2927V-39ZM2.41463 -39C17.9942 -39 36.4315 -34.6038 53.164 -22.1812L-51.7496 119.131C-34.1114 132.226 -14.4457 137 2.41463 137V-39ZM53.164 -22.1812C70.3651 -9.41068 88 14.4501 88 47.2073H-88C-88 80.9155 -69.8563 105.688 -51.7496 119.131L53.164 -22.1812ZM88 47.2073V16.1341H-88V47.2073H88ZM-83.1707 17.9268V45.4146H92.8293V17.9268H-83.1707ZM4.82927 133.415H12.878V-42.5854H4.82927V133.415ZM100.878 45.4146V17.9268H-75.122V45.4146H100.878ZM12.878 -70.0732H4.82927V105.927H12.878V-70.0732ZM110.537 16.1341C110.537 48.8916 92.9015 72.7523 75.7006 85.5226L-29.213 -55.7896C-47.3195 -42.3469 -65.4634 -17.5742 -65.4634 16.1341H110.537ZM75.7006 85.5226C58.9682 97.9452 40.531 102.341 24.9512 102.341L24.9512 -73.6585C8.09068 -73.6585 -11.5749 -68.8845 -29.213 -55.7896L75.7006 85.5226ZM24.9512 102.341H37.8293V-73.6585H24.9512V102.341ZM37.8293 102.341C22.2495 102.341 3.81226 97.9452 -12.9201 85.5226L91.9935 -55.7896C74.3554 -68.8845 54.6898 -73.6585 37.8293 -73.6585L37.8293 102.341ZM-12.9201 85.5226C-30.121 72.7523 -47.7561 48.8916 -47.7561 16.1341H128.244C128.244 -17.5742 110.1 -42.3469 91.9935 -55.7896L-12.9201 85.5226ZM-47.7561 16.1341V17.1715H128.244V16.1341H-47.7561ZM67.0001 101.005L68.4006 100.558L14.8882 -67.1093L13.4877 -66.6623L67.0001 101.005ZM68.2576 100.604C63.7251 102.042 59.3225 102.822 55.1502 103.103L43.3218 -72.4987C33.9191 -71.8653 24.393 -70.1251 15.0312 -67.1548L68.2576 100.604ZM55.1555 103.103C41.6704 104.012 26.2318 100.889 11.9166 91.2784C-2.15179 81.8332 -22 60.3032 -22 26.6034H154C154 -13.789 130.237 -41.2707 110.02 -54.8439C89.5564 -68.5827 65.7357 -74.0098 43.3165 -72.4983L55.1555 103.103ZM-22 26.6034V47.2073H154V26.6034H-22ZM-22 47.2073C-22 14.4502 -4.36524 -9.41056 12.836 -22.1812L117.75 119.131C135.856 105.688 154 80.9153 154 47.2073H-22ZM12.836 -22.1812C29.5685 -34.6038 48.0058 -39 63.5854 -39V137C80.4457 137 100.111 132.226 117.75 119.131L12.836 -22.1812ZM63.5854 -39H50.7073V137H63.5854V-39ZM50.7073 -39C66.2868 -39 84.7242 -34.6038 101.457 -22.1812L-3.45689 119.131C14.1813 132.226 33.847 137 50.7073 137V-39ZM101.457 -22.1812C118.658 -9.41056 136.293 14.4502 136.293 47.2073H-39.7073C-39.7073 80.9153 -21.5638 105.688 -3.45689 119.131L101.457 -22.1812ZM136.293 47.2073V30.4756H-39.7073V47.2073H136.293ZM136.293 30.4756C136.293 -3.5494 117.979 -28.6261 99.5708 -42.2932L-5.34283 99.019C-22.2421 86.4726 -39.7073 62.9158 -39.7073 30.4756H136.293ZM99.5708 -42.2932C81.6308 -55.6123 61.5557 -60.5122 44.2683 -60.5122V115.488C29.1156 115.488 11.0877 111.217 -5.34283 99.019L99.5708 -42.2932ZM44.2683 -60.5122C26.9808 -60.5122 6.90577 -55.6122 -11.0342 -42.2932L93.8794 99.019C77.4489 111.217 59.4211 115.488 44.2683 115.488V-60.5122ZM-11.0342 -42.2932C-29.4427 -28.6263 -47.7561 -3.5496 -47.7561 30.4756H128.244C128.244 62.916 110.778 86.4727 93.8794 99.019L-11.0342 -42.2932ZM-47.7561 30.4756V47.2073H128.244V30.4756H-47.7561ZM-47.7561 47.2073C-47.7561 14.4499 -30.121 -9.41079 -12.9201 -22.1812L91.9935 119.131C110.1 105.688 128.244 80.9156 128.244 47.2073L-47.7561 47.2073ZM-12.9201 -22.1812C3.81234 -34.6038 22.2497 -39 37.8293 -39V137C54.6897 137 74.3553 132.226 91.9935 119.131L-12.9201 -22.1812ZM37.8293 -39H24.9512V137H37.8293V-39ZM24.9512 -39C40.5308 -39 58.9681 -34.6038 75.7006 -22.1812L-29.213 119.131C-11.5748 132.226 8.0908 137 24.9512 137V-39ZM75.7006 -22.1812C92.9015 -9.41079 110.537 14.4499 110.537 47.2073H-65.4634C-65.4634 80.9156 -47.3195 105.688 -29.213 119.131L75.7006 -22.1812ZM110.537 47.2073V16.1341H-65.4634V47.2073H110.537ZM-60.6341 17.9268V45.4146H115.366V17.9268H-60.6341ZM27.3659 133.415H35.4146V-42.5854H27.3659V133.415ZM123.415 45.4146V30.4756H-52.5854V45.4146H123.415ZM123.415 30.4756C123.415 61.9651 106.458 84.6099 90.4646 96.4838L-14.449 -44.8284C-33.7632 -30.4891 -52.5854 -4.50047 -52.5854 30.4756H123.415ZM90.4646 96.4838C74.9397 108.01 58.1403 111.902 44.2683 111.902V-64.0976C25.7001 -64.0976 4.39664 -58.8199 -14.449 -44.8284L90.4646 96.4838ZM44.2683 111.902C30.3963 111.902 13.5968 108.01 -1.92803 96.4838L102.986 -44.8284C84.1399 -58.8199 62.8365 -64.0976 44.2683 -64.0976V111.902ZM-1.92803 96.4838C-17.9214 84.6099 -34.878 61.9651 -34.878 30.4756H141.122C141.122 -4.50047 122.3 -30.4891 102.986 -44.8284L-1.92803 96.4838ZM-34.878 30.4756V45.4146H141.122V30.4756H-34.878ZM53.122 133.415H61.1707V-42.5854H53.122V133.415ZM149.171 45.4146V26.6034H-26.8293V45.4146H149.171ZM149.171 26.6034C149.171 -12.7694 125.976 -39.2774 106.834 -52.149C87.3573 -65.2465 64.8335 -70.3535 43.7357 -68.9258L55.6184 106.673C40.6667 107.684 23.8898 104.167 8.62286 93.9006C-6.308 83.8603 -26.8293 61.4252 -26.8293 26.6034H149.171ZM43.7467 -68.9266C34.8675 -68.3268 25.8561 -66.6841 16.9796 -63.8731L70.1146 103.914C65.1385 105.49 60.2638 106.359 55.6075 106.673L43.7467 -68.9266ZM16.838 -63.8281L12.0731 -62.3103L65.4914 105.387L70.2563 103.869L16.838 -63.8281ZM12.0458 -62.3016C22.5474 -65.6506 33.207 -66.8058 43.4139 -66.1318L31.8168 109.486C42.8205 110.212 54.282 108.962 65.5186 105.379L12.0458 -62.3016ZM43.4139 -66.1318C53.5967 -65.4594 64.5038 -62.8841 75.2047 -57.6434L-2.20539 100.419C9.16328 105.987 20.8372 108.761 31.8168 109.486L43.4139 -66.1318ZM75.2047 -57.6434C85.8386 -52.4355 97.5207 -43.9333 106.98 -30.8692L-35.575 72.3495C-25.737 85.9367 -13.5071 94.8839 -2.20539 100.419L75.2047 -57.6434ZM106.98 -30.8692C116.683 -17.468 123.446 0.0991355 123.415 20.0286L-52.5853 19.7498C-52.6178 40.2732 -45.6571 58.4251 -35.575 72.3495L106.98 -30.8692ZM123.415 19.8892V17.9268H-52.5854V19.8892H123.415ZM35.4146 -70.0732H27.3659V105.927H35.4146V-70.0732Z" fill="white" mask="url(#path-1-inside-1_95_170)"/>
</svg>
