<svg width="97" height="97" viewBox="0 0 97 97" fill="none" xmlns="http://www.w3.org/2000/svg">
<circle cx="48.5" cy="48.5" r="48.5" fill="url(#paint0_linear_143_7)"/>
<path d="M55.1379 64.8732C54.1319 64.8732 53.1671 64.4978 52.4558 63.8296C51.7445 63.1614 51.3448 62.2552 51.3448 61.3102C51.3448 60.3652 51.7445 59.459 52.4558 58.7908C53.1671 58.1226 54.1319 57.7472 55.1379 57.7472C56.1439 57.7472 57.1087 58.1226 57.8201 58.7908C58.5314 59.459 58.931 60.3652 58.931 61.3102C58.931 62.2552 58.5314 63.1614 57.8201 63.8296C57.1087 64.4978 56.1439 64.8732 55.1379 64.8732ZM34.2759 38.1509C33.7729 38.1509 33.2905 37.9632 32.9348 37.6291C32.5791 37.295 32.3793 36.8418 32.3793 36.3694V32.8064C32.3793 32.3339 32.5791 31.8808 32.9348 31.5467C33.2905 31.2126 33.7729 31.0249 34.2759 31.0249H53.2414C53.7444 31.0249 54.2268 31.2126 54.5824 31.5467C54.9381 31.8808 55.1379 32.3339 55.1379 32.8064V36.3694C55.1379 36.8418 54.9381 37.295 54.5824 37.6291C54.2268 37.9632 53.7444 38.1509 53.2414 38.1509H34.2759ZM38.069 32.8064C37.566 32.8064 37.0836 32.9941 36.7279 33.3282C36.3722 33.6623 36.1724 34.1154 36.1724 34.5879C36.1724 35.0604 36.3722 35.5135 36.7279 35.8476C37.0836 36.1817 37.566 36.3694 38.069 36.3694C38.572 36.3694 39.0544 36.1817 39.41 35.8476C39.7657 35.5135 39.9655 35.0604 39.9655 34.5879C39.9655 34.1154 39.7657 33.6623 39.41 33.3282C39.0544 32.9941 38.572 32.8064 38.069 32.8064ZM45.6552 34.5879C45.6552 35.0604 45.855 35.5135 46.2107 35.8476C46.5663 36.1817 47.0487 36.3694 47.5517 36.3694H49.4483C49.9513 36.3694 50.4337 36.1817 50.7893 35.8476C51.145 35.5135 51.3448 35.0604 51.3448 34.5879C51.3448 34.1154 51.145 33.6623 50.7893 33.3282C50.4337 32.9941 49.9513 32.8064 49.4483 32.8064H47.5517C47.0487 32.8064 46.5663 32.9941 46.2107 33.3282C45.855 33.6623 45.6552 34.1154 45.6552 34.5879ZM30.4828 61.3102C30.4828 62.2552 30.8824 63.1614 31.5937 63.8296C32.3051 64.4978 33.2699 64.8732 34.2759 64.8732C35.2819 64.8732 36.2466 64.4978 36.958 63.8296C37.6693 63.1614 38.069 62.2552 38.069 61.3102C38.069 60.3652 37.6693 59.459 36.958 58.7908C36.2466 58.1226 35.2819 57.7472 34.2759 57.7472C33.2699 57.7472 32.3051 58.1226 31.5937 58.7908C30.8824 59.459 30.4828 60.3652 30.4828 61.3102Z" fill="white"/>
<path d="M55.1379 71.9991C52.924 71.9995 50.7579 71.3933 48.9052 70.2548C47.0525 69.1163 45.5934 67.4949 44.7069 65.5893C43.9876 67.1359 42.8886 68.5006 41.4999 69.5716C40.1113 70.6427 38.4724 71.3897 36.7173 71.7515C34.9623 72.1133 33.141 72.0796 31.4025 71.6533C29.664 71.2269 28.0576 70.42 26.7149 69.2984C25.3721 68.1769 24.3312 66.7727 23.6771 65.2007C23.0231 63.6287 22.7746 61.9336 22.9519 60.254C23.1293 58.5745 23.7275 56.9583 24.6975 55.5376C25.6676 54.1169 26.982 52.9322 28.5331 52.0803C27.4368 51.7044 26.4899 51.021 25.8209 50.1226C25.152 49.2243 24.7931 48.1546 24.7931 47.0583V45.2768H22.8966V46.1675C22.8966 46.4038 22.7966 46.6303 22.6188 46.7974C22.441 46.9644 22.1998 47.0583 21.9483 47.0583C21.6968 47.0583 21.4556 46.9644 21.2777 46.7974C21.0999 46.6303 21 46.4038 21 46.1675V37.2601C21 37.0238 21.0999 36.7973 21.2777 36.6302C21.4556 36.4632 21.6968 36.3693 21.9483 36.3693C22.1998 36.3693 22.441 36.4632 22.6188 36.6302C22.7966 36.7973 22.8966 37.0238 22.8966 37.2601V39.9323H24.7931V31.0249C24.7931 29.6074 25.3925 28.248 26.4596 27.2458C27.5266 26.2435 28.9738 25.6804 30.4828 25.6804H57.0345C58.5435 25.6804 59.9907 26.2435 61.0577 27.2458C62.1247 28.248 62.7241 29.6074 62.7241 31.0249V31.2351C62.7242 30.5733 62.9204 29.9245 63.2909 29.3616C63.6614 28.7987 64.1915 28.3438 64.8217 28.048L70.5114 25.3758C71.0897 25.1043 71.7322 24.9762 72.378 25.0036C73.0238 25.031 73.6515 25.213 74.2014 25.5323C74.7513 25.8516 75.2052 26.2976 75.5199 26.828C75.8347 27.3584 76 27.9556 76 28.5629V49.5203C76 50.1275 75.8347 50.7247 75.5199 51.2551C75.2052 51.7855 74.7513 52.2315 74.2014 52.5508C73.6515 52.8701 73.0238 53.0521 72.378 53.0795C71.7322 53.1069 71.0897 52.9788 70.5114 52.7074L64.8217 50.0351C64.1909 49.739 63.6604 49.2836 63.2899 48.72C62.9194 48.1564 62.7235 47.5069 62.7241 46.8445V47.0583C62.7241 48.9983 61.6241 50.6961 59.9779 51.6331C62.3213 52.6657 64.2199 54.418 65.3604 56.6006C66.5008 58.7833 66.815 61.266 66.2511 63.639C65.6871 66.0119 64.2788 68.1334 62.2584 69.6533C60.238 71.1732 57.7264 72.0006 55.1379 71.9991ZM47.5517 61.3102C47.5517 63.2001 48.351 65.0126 49.7737 66.349C51.1964 67.6853 53.1259 68.4361 55.1379 68.4361C57.1499 68.4361 59.0795 67.6853 60.5022 66.349C61.9249 65.0126 62.7241 63.2001 62.7241 61.3102C62.7241 59.4202 61.9249 57.6077 60.5022 56.2713C59.0795 54.935 57.1499 54.1842 55.1379 54.1842C53.1259 54.1842 51.1964 54.935 49.7737 56.2713C48.351 57.6077 47.5517 59.4202 47.5517 61.3102ZM72.2069 49.5203V28.5629L66.5172 31.2351V46.848L72.2069 49.5203ZM30.4828 48.8397H57.0345C57.5375 48.8397 58.0199 48.6521 58.3755 48.318C58.7312 47.9839 58.931 47.5307 58.931 47.0583V31.0249C58.931 30.5524 58.7312 30.0993 58.3755 29.7652C58.0199 29.4311 57.5375 29.2434 57.0345 29.2434H30.4828C29.9798 29.2434 29.4974 29.4311 29.1417 29.7652C28.786 30.0993 28.5862 30.5524 28.5862 31.0249V47.0583C28.5862 47.5307 28.786 47.9839 29.1417 48.318C29.4974 48.6521 29.9798 48.8397 30.4828 48.8397ZM34.2759 68.4361C36.2878 68.4361 38.2174 67.6853 39.6401 66.349C41.0628 65.0126 41.8621 63.2001 41.8621 61.3102C41.8621 59.4202 41.0628 57.6077 39.6401 56.2713C38.2174 54.935 36.2878 54.1842 34.2759 54.1842C32.2639 54.1842 30.3343 54.935 28.9116 56.2713C27.4889 57.6077 26.6897 59.4202 26.6897 61.3102C26.6897 63.2001 27.4889 65.0126 28.9116 66.349C30.3343 67.6853 32.2639 68.4361 34.2759 68.4361Z" fill="white"/>
<defs>
<linearGradient id="paint0_linear_143_7" x1="97" y1="48.5" x2="-7.45761e-07" y2="48.5" gradientUnits="userSpaceOnUse">
<stop stop-color="#F54586"/>
<stop offset="1" stop-color="#5353A7"/>
</linearGradient>
</defs>
</svg>
