<svg width="74" height="76" viewBox="0 0 74 76" fill="none" xmlns="http://www.w3.org/2000/svg">
<path d="M64.0534 47.589L50.398 41.3042C49.7793 41.0319 49.1043 40.9225 48.434 40.9857C47.7637 41.049 47.1193 41.2829 46.5593 41.6664C46.5026 41.704 46.4485 41.7457 46.3974 41.7911L39.2605 48.0255C39.1864 48.0669 39.104 48.0901 39.0197 48.0932C38.9354 48.0963 38.8516 48.0792 38.7748 48.0433C34.1874 45.7692 29.4352 40.9183 27.2123 36.2722C27.1753 36.1945 27.1561 36.1092 27.1561 36.0228C27.1561 35.9364 27.1753 35.8511 27.2123 35.7734L33.3029 28.3515C33.3467 28.2967 33.3872 28.2392 33.4243 28.1794C33.7925 27.602 34.0149 26.9395 34.0715 26.2517C34.128 25.5639 34.0168 24.8725 33.748 24.2398L27.672 10.2392C27.3269 9.41273 26.7301 8.72349 25.9713 8.27492C25.2124 7.82635 24.3324 7.64265 23.4632 7.75139C19.6858 8.26141 16.2185 10.1666 13.7091 13.1109C11.1998 16.0552 9.82021 19.8371 9.82812 23.75C9.82812 46.9953 28.2414 65.9062 50.875 65.9062C54.6847 65.9137 58.3668 64.4966 61.2335 61.9196C64.1002 59.3426 65.9554 55.7819 66.4526 51.9026C66.5582 51.0142 66.3818 50.1144 65.9495 49.3372C65.5172 48.56 64.8522 47.9469 64.0534 47.589ZM50.875 62.3437C30.155 62.3437 13.2969 45.03 13.2969 23.75C13.2872 20.7038 14.3577 17.7583 16.3085 15.4636C18.2592 13.169 20.9566 11.6823 23.8968 11.2812H23.9633C24.0798 11.2835 24.1929 11.3218 24.2878 11.3912C24.3827 11.4606 24.455 11.5578 24.4952 11.6701L30.5944 25.6559C30.6292 25.7337 30.6472 25.8182 30.6472 25.9038C30.6472 25.9894 30.6292 26.0739 30.5944 26.1517L24.4923 33.5914C24.447 33.6447 24.4054 33.7012 24.368 33.7606C23.9861 34.3593 23.7613 35.0491 23.7152 35.7632C23.6691 36.4773 23.8034 37.1915 24.1049 37.8367C26.6689 43.228 31.9587 48.6192 37.2659 51.2525C37.8978 51.5605 38.5966 51.695 39.2942 51.643C39.9918 51.591 40.6644 51.3541 41.2463 50.9556C41.3012 50.917 41.3562 50.8755 41.4082 50.8309L48.5423 44.5965C48.6127 44.5577 48.6905 44.5349 48.7704 44.5298C48.8502 44.5246 48.9301 44.5373 49.0048 44.5669L62.663 50.8517C62.7745 50.9005 62.8683 50.9841 62.9311 51.0906C62.9939 51.1972 63.0224 51.3213 63.0127 51.4455C62.6243 54.4665 61.1781 57.2389 58.9443 59.2446C56.7105 61.2502 53.8421 62.3519 50.875 62.3437Z" fill="white"/>
</svg>
