<svg width="97" height="97" viewBox="0 0 97 97" fill="none" xmlns="http://www.w3.org/2000/svg">
<circle cx="48.5" cy="48.5" r="48.5" fill="url(#paint0_linear_143_23)"/>
<path d="M49 40C51.0714 34.0788 58.895 31.0553 75.9286 31C76.2009 30.9993 76.4707 31.0376 76.7225 31.1127C76.9743 31.1878 77.203 31.2983 77.3956 31.4377C77.5881 31.5771 77.7407 31.7428 77.8444 31.9251C77.9481 32.1074 78.001 32.3028 78 32.5V59.5C78 59.8978 77.7818 60.2794 77.3933 60.5607C77.0048 60.842 76.4779 61 75.9286 61C59.3571 61 52.9551 63.4197 49 67M49 40C46.9286 34.0788 39.1051 31.0553 22.0714 31C21.7991 30.9993 21.5293 31.0376 21.2775 31.1127C21.0257 31.1878 20.797 31.2983 20.6044 31.4377C20.4119 31.5771 20.2593 31.7428 20.1556 31.9251C20.0519 32.1074 19.999 32.3028 20 32.5V59.3191C20 60.2453 20.7923 61 22.0714 61C38.6429 61 45.0682 63.4375 49 67M49 40V67" stroke="white" stroke-width="4" stroke-linecap="round" stroke-linejoin="round"/>
<defs>
<linearGradient id="paint0_linear_143_23" x1="97" y1="48.5" x2="-7.45761e-07" y2="48.5" gradientUnits="userSpaceOnUse">
<stop stop-color="#F54586"/>
<stop offset="1" stop-color="#5353A7"/>
</linearGradient>
</defs>
</svg>
