<svg width="97" height="97" viewBox="0 0 97 97" fill="none" xmlns="http://www.w3.org/2000/svg">
<circle cx="48.5" cy="48.5" r="48.5" fill="url(#paint0_linear_143_20)"/>
<path d="M32.594 63.2069L23.0445 58.3793L26.1779 55.4828L33.6384 56.4483L45.2769 45.6897L22 33.9655L26.1779 30.1034L54.6772 36.8621L66.3902 26.1724C67.2358 25.3908 68.2932 25 69.5625 25C70.8318 25 71.8882 25.3908 72.7317 26.1724C73.5752 26.954 73.998 27.9315 74 29.1048C74.002 30.2782 73.5792 31.2547 72.7317 32.0345L61.0932 42.7931L68.4046 69.1379L64.2267 73L51.5438 51.4828L39.9053 62.2414L40.9498 69.1379L37.8164 72.0345L32.594 63.2069Z" fill="white"/>
<defs>
<linearGradient id="paint0_linear_143_20" x1="97" y1="48.5" x2="-7.45761e-07" y2="48.5" gradientUnits="userSpaceOnUse">
<stop stop-color="#F54586"/>
<stop offset="1" stop-color="#5353A7"/>
</linearGradient>
</defs>
</svg>
